<mxfile host="app.diagrams.net" modified="2024-03-29T20:14:07.297Z" agent="Mozilla/5.0 (Windows NT 10.0; Win64; x64; rv:123.0) Gecko/20100101 Firefox/123.0" etag="D4cC3EpA5rLrS48BKdWd" version="24.2.1" type="device">
  <diagram name="Page-1" id="OOlWo_3TjE5HUljcsLQM">
    <mxGraphModel dx="3195" dy="998" grid="1" gridSize="10" guides="1" tooltips="1" connect="1" arrows="1" fold="1" page="1" pageScale="1" pageWidth="850" pageHeight="1100" math="0" shadow="0">
      <root>
        <mxCell id="0" />
        <mxCell id="1" parent="0" />
        <mxCell id="kn155wyiQKAhr_0Em1bI-1" value="Patient" style="rounded=0;whiteSpace=wrap;html=1;" vertex="1" parent="1">
          <mxGeometry x="90" y="180" width="120" height="60" as="geometry" />
        </mxCell>
        <mxCell id="kn155wyiQKAhr_0Em1bI-2" value="Consult" style="rhombus;whiteSpace=wrap;html=1;" vertex="1" parent="1">
          <mxGeometry x="310" y="185" width="80" height="50" as="geometry" />
        </mxCell>
        <mxCell id="kn155wyiQKAhr_0Em1bI-3" value="" style="endArrow=none;html=1;rounded=0;exitX=1;exitY=0.5;exitDx=0;exitDy=0;entryX=0;entryY=0.5;entryDx=0;entryDy=0;" edge="1" parent="1" source="kn155wyiQKAhr_0Em1bI-1" target="kn155wyiQKAhr_0Em1bI-2">
          <mxGeometry width="50" height="50" relative="1" as="geometry">
            <mxPoint x="250" y="310" as="sourcePoint" />
            <mxPoint x="300" y="260" as="targetPoint" />
          </mxGeometry>
        </mxCell>
        <mxCell id="kn155wyiQKAhr_0Em1bI-4" value="" style="endArrow=none;html=1;rounded=0;entryX=1;entryY=0.5;entryDx=0;entryDy=0;" edge="1" parent="1" target="kn155wyiQKAhr_0Em1bI-2">
          <mxGeometry width="50" height="50" relative="1" as="geometry">
            <mxPoint x="470" y="210" as="sourcePoint" />
            <mxPoint x="300" y="260" as="targetPoint" />
          </mxGeometry>
        </mxCell>
        <mxCell id="kn155wyiQKAhr_0Em1bI-5" value="Doctor" style="rounded=0;whiteSpace=wrap;html=1;" vertex="1" parent="1">
          <mxGeometry x="470" y="185" width="100" height="50" as="geometry" />
        </mxCell>
        <mxCell id="kn155wyiQKAhr_0Em1bI-6" value="Mr No" style="rounded=1;whiteSpace=wrap;html=1;" vertex="1" parent="1">
          <mxGeometry x="20" y="100" width="50" height="30" as="geometry" />
        </mxCell>
        <mxCell id="kn155wyiQKAhr_0Em1bI-7" value="Name" style="rounded=1;whiteSpace=wrap;html=1;" vertex="1" parent="1">
          <mxGeometry x="80" y="60" width="50" height="30" as="geometry" />
        </mxCell>
        <mxCell id="kn155wyiQKAhr_0Em1bI-8" value="Gender" style="rounded=1;whiteSpace=wrap;html=1;" vertex="1" parent="1">
          <mxGeometry x="150" y="60" width="60" height="30" as="geometry" />
        </mxCell>
        <mxCell id="kn155wyiQKAhr_0Em1bI-9" value="Age" style="rounded=1;whiteSpace=wrap;html=1;" vertex="1" parent="1">
          <mxGeometry x="220" y="100" width="60" height="30" as="geometry" />
        </mxCell>
        <mxCell id="kn155wyiQKAhr_0Em1bI-10" value="" style="endArrow=classic;html=1;rounded=0;exitX=1.14;exitY=0.667;exitDx=0;exitDy=0;exitPerimeter=0;entryX=0.5;entryY=0;entryDx=0;entryDy=0;" edge="1" parent="1" source="kn155wyiQKAhr_0Em1bI-6" target="kn155wyiQKAhr_0Em1bI-1">
          <mxGeometry width="50" height="50" relative="1" as="geometry">
            <mxPoint x="250" y="310" as="sourcePoint" />
            <mxPoint x="300" y="260" as="targetPoint" />
          </mxGeometry>
        </mxCell>
        <mxCell id="kn155wyiQKAhr_0Em1bI-11" value="" style="endArrow=classic;html=1;rounded=0;exitX=0.5;exitY=1;exitDx=0;exitDy=0;entryX=0.5;entryY=0;entryDx=0;entryDy=0;" edge="1" parent="1" source="kn155wyiQKAhr_0Em1bI-7" target="kn155wyiQKAhr_0Em1bI-1">
          <mxGeometry width="50" height="50" relative="1" as="geometry">
            <mxPoint x="250" y="310" as="sourcePoint" />
            <mxPoint x="300" y="260" as="targetPoint" />
          </mxGeometry>
        </mxCell>
        <mxCell id="kn155wyiQKAhr_0Em1bI-12" value="" style="endArrow=classic;html=1;rounded=0;exitX=0.483;exitY=1.233;exitDx=0;exitDy=0;entryX=0.5;entryY=0;entryDx=0;entryDy=0;exitPerimeter=0;" edge="1" parent="1" source="kn155wyiQKAhr_0Em1bI-8" target="kn155wyiQKAhr_0Em1bI-1">
          <mxGeometry width="50" height="50" relative="1" as="geometry">
            <mxPoint x="115" y="100" as="sourcePoint" />
            <mxPoint x="160" y="190" as="targetPoint" />
          </mxGeometry>
        </mxCell>
        <mxCell id="kn155wyiQKAhr_0Em1bI-13" value="" style="endArrow=classic;html=1;rounded=0;exitX=0.5;exitY=1;exitDx=0;exitDy=0;entryX=0.592;entryY=-0.017;entryDx=0;entryDy=0;entryPerimeter=0;" edge="1" parent="1" source="kn155wyiQKAhr_0Em1bI-9" target="kn155wyiQKAhr_0Em1bI-1">
          <mxGeometry width="50" height="50" relative="1" as="geometry">
            <mxPoint x="125" y="110" as="sourcePoint" />
            <mxPoint x="170" y="200" as="targetPoint" />
          </mxGeometry>
        </mxCell>
        <mxCell id="kn155wyiQKAhr_0Em1bI-14" value="Employee" style="rounded=1;whiteSpace=wrap;html=1;" vertex="1" parent="1">
          <mxGeometry x="400" y="95" width="70" height="40" as="geometry" />
        </mxCell>
        <mxCell id="kn155wyiQKAhr_0Em1bI-15" value="Name" style="rounded=1;whiteSpace=wrap;html=1;" vertex="1" parent="1">
          <mxGeometry x="480" y="50" width="60" height="30" as="geometry" />
        </mxCell>
        <mxCell id="kn155wyiQKAhr_0Em1bI-16" value="Gender" style="rounded=1;whiteSpace=wrap;html=1;" vertex="1" parent="1">
          <mxGeometry x="560" y="50" width="60" height="30" as="geometry" />
        </mxCell>
        <mxCell id="kn155wyiQKAhr_0Em1bI-18" value="specility" style="rounded=1;whiteSpace=wrap;html=1;" vertex="1" parent="1">
          <mxGeometry x="640" y="95" width="70" height="40" as="geometry" />
        </mxCell>
        <mxCell id="kn155wyiQKAhr_0Em1bI-23" value="" style="endArrow=classic;html=1;rounded=0;exitX=1;exitY=0.75;exitDx=0;exitDy=0;entryX=0.38;entryY=0.02;entryDx=0;entryDy=0;entryPerimeter=0;" edge="1" parent="1" source="kn155wyiQKAhr_0Em1bI-14" target="kn155wyiQKAhr_0Em1bI-5">
          <mxGeometry width="50" height="50" relative="1" as="geometry">
            <mxPoint x="480" y="310" as="sourcePoint" />
            <mxPoint x="530" y="260" as="targetPoint" />
          </mxGeometry>
        </mxCell>
        <mxCell id="kn155wyiQKAhr_0Em1bI-24" value="" style="endArrow=classic;html=1;rounded=0;exitX=0.5;exitY=1;exitDx=0;exitDy=0;entryX=0.5;entryY=0;entryDx=0;entryDy=0;" edge="1" parent="1" source="kn155wyiQKAhr_0Em1bI-15" target="kn155wyiQKAhr_0Em1bI-5">
          <mxGeometry width="50" height="50" relative="1" as="geometry">
            <mxPoint x="480" y="135" as="sourcePoint" />
            <mxPoint x="510" y="180" as="targetPoint" />
          </mxGeometry>
        </mxCell>
        <mxCell id="kn155wyiQKAhr_0Em1bI-25" value="" style="endArrow=classic;html=1;rounded=0;exitX=0.25;exitY=1;exitDx=0;exitDy=0;entryX=0.59;entryY=-0.06;entryDx=0;entryDy=0;entryPerimeter=0;" edge="1" parent="1" source="kn155wyiQKAhr_0Em1bI-16" target="kn155wyiQKAhr_0Em1bI-5">
          <mxGeometry width="50" height="50" relative="1" as="geometry">
            <mxPoint x="490" y="145" as="sourcePoint" />
            <mxPoint x="528" y="206" as="targetPoint" />
          </mxGeometry>
        </mxCell>
        <mxCell id="kn155wyiQKAhr_0Em1bI-26" value="" style="endArrow=classic;html=1;rounded=0;exitX=0;exitY=1;exitDx=0;exitDy=0;entryX=0.64;entryY=-0.06;entryDx=0;entryDy=0;entryPerimeter=0;" edge="1" parent="1" source="kn155wyiQKAhr_0Em1bI-18" target="kn155wyiQKAhr_0Em1bI-5">
          <mxGeometry width="50" height="50" relative="1" as="geometry">
            <mxPoint x="500" y="155" as="sourcePoint" />
            <mxPoint x="538" y="216" as="targetPoint" />
          </mxGeometry>
        </mxCell>
        <mxCell id="kn155wyiQKAhr_0Em1bI-27" value="Registrate" style="rhombus;whiteSpace=wrap;html=1;" vertex="1" parent="1">
          <mxGeometry x="90" y="320" width="110" height="60" as="geometry" />
        </mxCell>
        <mxCell id="kn155wyiQKAhr_0Em1bI-28" value="Registration" style="rounded=0;whiteSpace=wrap;html=1;" vertex="1" parent="1">
          <mxGeometry x="90" y="460" width="115" height="50" as="geometry" />
        </mxCell>
        <mxCell id="kn155wyiQKAhr_0Em1bI-29" value="Mr No" style="rounded=1;whiteSpace=wrap;html=1;" vertex="1" parent="1">
          <mxGeometry x="20" y="550" width="50" height="30" as="geometry" />
        </mxCell>
        <mxCell id="kn155wyiQKAhr_0Em1bI-30" value="DOB" style="rounded=1;whiteSpace=wrap;html=1;" vertex="1" parent="1">
          <mxGeometry x="80" y="600" width="60" height="30" as="geometry" />
        </mxCell>
        <mxCell id="kn155wyiQKAhr_0Em1bI-31" value="Add" style="rounded=1;whiteSpace=wrap;html=1;" vertex="1" parent="1">
          <mxGeometry x="160" y="600" width="60" height="30" as="geometry" />
        </mxCell>
        <mxCell id="kn155wyiQKAhr_0Em1bI-32" value="&lt;div&gt;Ph no&lt;/div&gt;" style="rounded=1;whiteSpace=wrap;html=1;" vertex="1" parent="1">
          <mxGeometry x="230" y="550" width="60" height="30" as="geometry" />
        </mxCell>
        <mxCell id="kn155wyiQKAhr_0Em1bI-33" value="" style="endArrow=classic;html=1;rounded=0;exitX=0.5;exitY=0;exitDx=0;exitDy=0;entryX=0.33;entryY=1;entryDx=0;entryDy=0;entryPerimeter=0;" edge="1" parent="1" source="kn155wyiQKAhr_0Em1bI-29" target="kn155wyiQKAhr_0Em1bI-28">
          <mxGeometry width="50" height="50" relative="1" as="geometry">
            <mxPoint x="210" y="500" as="sourcePoint" />
            <mxPoint x="260" y="450" as="targetPoint" />
          </mxGeometry>
        </mxCell>
        <mxCell id="kn155wyiQKAhr_0Em1bI-34" value="" style="endArrow=classic;html=1;rounded=0;exitX=0.5;exitY=0;exitDx=0;exitDy=0;entryX=0.409;entryY=1.02;entryDx=0;entryDy=0;entryPerimeter=0;" edge="1" parent="1" source="kn155wyiQKAhr_0Em1bI-30" target="kn155wyiQKAhr_0Em1bI-28">
          <mxGeometry width="50" height="50" relative="1" as="geometry">
            <mxPoint x="55" y="560" as="sourcePoint" />
            <mxPoint x="138" y="520" as="targetPoint" />
          </mxGeometry>
        </mxCell>
        <mxCell id="kn155wyiQKAhr_0Em1bI-35" value="" style="endArrow=classic;html=1;rounded=0;exitX=0.25;exitY=0;exitDx=0;exitDy=0;entryX=0.435;entryY=1;entryDx=0;entryDy=0;entryPerimeter=0;" edge="1" parent="1" source="kn155wyiQKAhr_0Em1bI-31" target="kn155wyiQKAhr_0Em1bI-28">
          <mxGeometry width="50" height="50" relative="1" as="geometry">
            <mxPoint x="65" y="570" as="sourcePoint" />
            <mxPoint x="148" y="530" as="targetPoint" />
          </mxGeometry>
        </mxCell>
        <mxCell id="kn155wyiQKAhr_0Em1bI-36" value="" style="endArrow=classic;html=1;rounded=0;exitX=0;exitY=0.5;exitDx=0;exitDy=0;entryX=0.5;entryY=1;entryDx=0;entryDy=0;" edge="1" parent="1" source="kn155wyiQKAhr_0Em1bI-32" target="kn155wyiQKAhr_0Em1bI-28">
          <mxGeometry width="50" height="50" relative="1" as="geometry">
            <mxPoint x="75" y="580" as="sourcePoint" />
            <mxPoint x="140" y="520" as="targetPoint" />
          </mxGeometry>
        </mxCell>
        <mxCell id="kn155wyiQKAhr_0Em1bI-37" value="" style="endArrow=none;html=1;rounded=0;exitX=1;exitY=0.5;exitDx=0;exitDy=0;" edge="1" parent="1" source="kn155wyiQKAhr_0Em1bI-28" target="kn155wyiQKAhr_0Em1bI-38">
          <mxGeometry width="50" height="50" relative="1" as="geometry">
            <mxPoint x="320" y="500" as="sourcePoint" />
            <mxPoint x="280" y="485" as="targetPoint" />
          </mxGeometry>
        </mxCell>
        <mxCell id="kn155wyiQKAhr_0Em1bI-38" value="Set up" style="rhombus;whiteSpace=wrap;html=1;" vertex="1" parent="1">
          <mxGeometry x="240" y="450" width="140" height="70" as="geometry" />
        </mxCell>
        <mxCell id="kn155wyiQKAhr_0Em1bI-39" value="" style="endArrow=none;html=1;rounded=0;exitX=1;exitY=0.5;exitDx=0;exitDy=0;" edge="1" parent="1" source="kn155wyiQKAhr_0Em1bI-38">
          <mxGeometry width="50" height="50" relative="1" as="geometry">
            <mxPoint x="320" y="500" as="sourcePoint" />
            <mxPoint x="440" y="485" as="targetPoint" />
          </mxGeometry>
        </mxCell>
        <mxCell id="kn155wyiQKAhr_0Em1bI-40" value="Medical Record" style="rounded=0;whiteSpace=wrap;html=1;" vertex="1" parent="1">
          <mxGeometry x="450" y="450" width="120" height="60" as="geometry" />
        </mxCell>
        <mxCell id="kn155wyiQKAhr_0Em1bI-41" value="Marital Status" style="rounded=1;whiteSpace=wrap;html=1;" vertex="1" parent="1">
          <mxGeometry x="360" y="550" width="70" height="50" as="geometry" />
        </mxCell>
        <mxCell id="kn155wyiQKAhr_0Em1bI-42" value="Allargies" style="rounded=1;whiteSpace=wrap;html=1;" vertex="1" parent="1">
          <mxGeometry x="600" y="370" width="60" height="30" as="geometry" />
        </mxCell>
        <mxCell id="kn155wyiQKAhr_0Em1bI-43" value="Medication" style="rounded=1;whiteSpace=wrap;html=1;" vertex="1" parent="1">
          <mxGeometry x="660" y="450" width="70" height="40" as="geometry" />
        </mxCell>
        <mxCell id="kn155wyiQKAhr_0Em1bI-44" value="Pregnancies" style="rounded=1;whiteSpace=wrap;html=1;" vertex="1" parent="1">
          <mxGeometry x="590" y="560" width="70" height="40" as="geometry" />
        </mxCell>
        <mxCell id="kn155wyiQKAhr_0Em1bI-45" value="" style="endArrow=none;html=1;rounded=0;entryX=0.5;entryY=1;entryDx=0;entryDy=0;exitX=0.5;exitY=0;exitDx=0;exitDy=0;" edge="1" parent="1" source="kn155wyiQKAhr_0Em1bI-27" target="kn155wyiQKAhr_0Em1bI-1">
          <mxGeometry width="50" height="50" relative="1" as="geometry">
            <mxPoint x="400" y="410" as="sourcePoint" />
            <mxPoint x="450" y="360" as="targetPoint" />
          </mxGeometry>
        </mxCell>
        <mxCell id="kn155wyiQKAhr_0Em1bI-46" value="" style="endArrow=none;html=1;rounded=0;entryX=0.5;entryY=1;entryDx=0;entryDy=0;exitX=0.5;exitY=0;exitDx=0;exitDy=0;" edge="1" parent="1" source="kn155wyiQKAhr_0Em1bI-28" target="kn155wyiQKAhr_0Em1bI-27">
          <mxGeometry width="50" height="50" relative="1" as="geometry">
            <mxPoint x="400" y="410" as="sourcePoint" />
            <mxPoint x="450" y="360" as="targetPoint" />
          </mxGeometry>
        </mxCell>
        <mxCell id="kn155wyiQKAhr_0Em1bI-47" value="Fill up" style="rhombus;whiteSpace=wrap;html=1;" vertex="1" parent="1">
          <mxGeometry x="460" y="290" width="120" height="70" as="geometry" />
        </mxCell>
        <mxCell id="kn155wyiQKAhr_0Em1bI-48" value="" style="endArrow=none;html=1;rounded=0;entryX=0.5;entryY=1;entryDx=0;entryDy=0;" edge="1" parent="1" source="kn155wyiQKAhr_0Em1bI-47" target="kn155wyiQKAhr_0Em1bI-5">
          <mxGeometry width="50" height="50" relative="1" as="geometry">
            <mxPoint x="400" y="410" as="sourcePoint" />
            <mxPoint x="450" y="360" as="targetPoint" />
          </mxGeometry>
        </mxCell>
        <mxCell id="kn155wyiQKAhr_0Em1bI-49" value="" style="endArrow=none;html=1;rounded=0;entryX=0.5;entryY=1;entryDx=0;entryDy=0;exitX=0.604;exitY=-0.067;exitDx=0;exitDy=0;exitPerimeter=0;" edge="1" parent="1" source="kn155wyiQKAhr_0Em1bI-40" target="kn155wyiQKAhr_0Em1bI-47">
          <mxGeometry width="50" height="50" relative="1" as="geometry">
            <mxPoint x="400" y="410" as="sourcePoint" />
            <mxPoint x="450" y="360" as="targetPoint" />
          </mxGeometry>
        </mxCell>
        <mxCell id="kn155wyiQKAhr_0Em1bI-50" value="" style="endArrow=classic;html=1;rounded=0;exitX=0;exitY=0.5;exitDx=0;exitDy=0;entryX=0.75;entryY=0;entryDx=0;entryDy=0;" edge="1" parent="1" source="kn155wyiQKAhr_0Em1bI-42" target="kn155wyiQKAhr_0Em1bI-40">
          <mxGeometry width="50" height="50" relative="1" as="geometry">
            <mxPoint x="400" y="410" as="sourcePoint" />
            <mxPoint x="450" y="360" as="targetPoint" />
          </mxGeometry>
        </mxCell>
        <mxCell id="kn155wyiQKAhr_0Em1bI-51" value="" style="endArrow=classic;html=1;rounded=0;exitX=0;exitY=0.25;exitDx=0;exitDy=0;entryX=1;entryY=0.5;entryDx=0;entryDy=0;" edge="1" parent="1" source="kn155wyiQKAhr_0Em1bI-43" target="kn155wyiQKAhr_0Em1bI-40">
          <mxGeometry width="50" height="50" relative="1" as="geometry">
            <mxPoint x="610" y="395" as="sourcePoint" />
            <mxPoint x="550" y="460" as="targetPoint" />
          </mxGeometry>
        </mxCell>
        <mxCell id="kn155wyiQKAhr_0Em1bI-52" value="" style="endArrow=classic;html=1;rounded=0;entryX=0.75;entryY=1;entryDx=0;entryDy=0;" edge="1" parent="1" target="kn155wyiQKAhr_0Em1bI-40">
          <mxGeometry width="50" height="50" relative="1" as="geometry">
            <mxPoint x="610" y="550" as="sourcePoint" />
            <mxPoint x="560" y="470" as="targetPoint" />
          </mxGeometry>
        </mxCell>
        <mxCell id="kn155wyiQKAhr_0Em1bI-53" value="" style="endArrow=classic;html=1;rounded=0;entryX=0.127;entryY=1.124;entryDx=0;entryDy=0;entryPerimeter=0;exitX=0.75;exitY=0;exitDx=0;exitDy=0;" edge="1" parent="1" source="kn155wyiQKAhr_0Em1bI-41" target="kn155wyiQKAhr_0Em1bI-40">
          <mxGeometry width="50" height="50" relative="1" as="geometry">
            <mxPoint x="410" y="540" as="sourcePoint" />
            <mxPoint x="570" y="480" as="targetPoint" />
          </mxGeometry>
        </mxCell>
        <mxCell id="kn155wyiQKAhr_0Em1bI-54" value="M" style="text;html=1;align=center;verticalAlign=middle;resizable=0;points=[];autosize=1;strokeColor=none;fillColor=none;" vertex="1" parent="1">
          <mxGeometry x="505" y="498" width="30" height="30" as="geometry" />
        </mxCell>
        <mxCell id="kn155wyiQKAhr_0Em1bI-55" value="1" style="text;html=1;align=center;verticalAlign=middle;resizable=0;points=[];autosize=1;strokeColor=none;fillColor=none;" vertex="1" parent="1">
          <mxGeometry x="165" y="248" width="30" height="30" as="geometry" />
        </mxCell>
        <mxCell id="kn155wyiQKAhr_0Em1bI-56" value="1" style="text;html=1;align=center;verticalAlign=middle;resizable=0;points=[];autosize=1;strokeColor=none;fillColor=none;" vertex="1" parent="1">
          <mxGeometry x="155" y="418" width="30" height="30" as="geometry" />
        </mxCell>
        <mxCell id="kn155wyiQKAhr_0Em1bI-59" value="Vendor" style="rounded=0;whiteSpace=wrap;html=1;" vertex="1" parent="1">
          <mxGeometry x="80" y="750" width="140" height="70" as="geometry" />
        </mxCell>
        <mxCell id="kn155wyiQKAhr_0Em1bI-60" value="Name" style="rounded=1;whiteSpace=wrap;html=1;" vertex="1" parent="1">
          <mxGeometry x="-20" y="880" width="90" height="40" as="geometry" />
        </mxCell>
        <mxCell id="kn155wyiQKAhr_0Em1bI-62" value="Advt" style="rounded=1;whiteSpace=wrap;html=1;" vertex="1" parent="1">
          <mxGeometry x="190" y="880" width="110" height="40" as="geometry" />
        </mxCell>
        <mxCell id="kn155wyiQKAhr_0Em1bI-63" value="Handel" style="rhombus;whiteSpace=wrap;html=1;" vertex="1" parent="1">
          <mxGeometry x="330" y="740" width="130" height="80" as="geometry" />
        </mxCell>
        <mxCell id="kn155wyiQKAhr_0Em1bI-64" value="" style="endArrow=none;html=1;rounded=0;exitX=1;exitY=0.5;exitDx=0;exitDy=0;entryX=0;entryY=0.5;entryDx=0;entryDy=0;" edge="1" parent="1" source="kn155wyiQKAhr_0Em1bI-59" target="kn155wyiQKAhr_0Em1bI-63">
          <mxGeometry width="50" height="50" relative="1" as="geometry">
            <mxPoint x="360" y="660" as="sourcePoint" />
            <mxPoint x="410" y="610" as="targetPoint" />
          </mxGeometry>
        </mxCell>
        <mxCell id="kn155wyiQKAhr_0Em1bI-65" value="Admin" style="rounded=0;whiteSpace=wrap;html=1;" vertex="1" parent="1">
          <mxGeometry x="570" y="740" width="150" height="70" as="geometry" />
        </mxCell>
        <mxCell id="kn155wyiQKAhr_0Em1bI-66" value="" style="endArrow=none;html=1;rounded=0;entryX=0;entryY=0.5;entryDx=0;entryDy=0;" edge="1" parent="1" source="kn155wyiQKAhr_0Em1bI-63" target="kn155wyiQKAhr_0Em1bI-65">
          <mxGeometry width="50" height="50" relative="1" as="geometry">
            <mxPoint x="360" y="660" as="sourcePoint" />
            <mxPoint x="410" y="610" as="targetPoint" />
          </mxGeometry>
        </mxCell>
        <mxCell id="kn155wyiQKAhr_0Em1bI-67" value="1" style="text;html=1;align=center;verticalAlign=middle;resizable=0;points=[];autosize=1;strokeColor=none;fillColor=none;" vertex="1" parent="1">
          <mxGeometry x="525" y="728" width="30" height="30" as="geometry" />
        </mxCell>
        <mxCell id="kn155wyiQKAhr_0Em1bI-68" value="M" style="text;html=1;align=center;verticalAlign=middle;resizable=0;points=[];autosize=1;strokeColor=none;fillColor=none;" vertex="1" parent="1">
          <mxGeometry x="225" y="758" width="30" height="30" as="geometry" />
        </mxCell>
        <mxCell id="kn155wyiQKAhr_0Em1bI-69" value="Id" style="rounded=1;whiteSpace=wrap;html=1;" vertex="1" parent="1">
          <mxGeometry x="500" y="890" width="90" height="40" as="geometry" />
        </mxCell>
        <mxCell id="kn155wyiQKAhr_0Em1bI-70" value="name" style="rounded=1;whiteSpace=wrap;html=1;" vertex="1" parent="1">
          <mxGeometry x="690" y="890" width="90" height="40" as="geometry" />
        </mxCell>
        <mxCell id="kn155wyiQKAhr_0Em1bI-71" value="" style="endArrow=classic;html=1;rounded=0;exitX=0.5;exitY=0;exitDx=0;exitDy=0;entryX=0.25;entryY=1;entryDx=0;entryDy=0;" edge="1" parent="1" source="kn155wyiQKAhr_0Em1bI-60" target="kn155wyiQKAhr_0Em1bI-59">
          <mxGeometry width="50" height="50" relative="1" as="geometry">
            <mxPoint x="390" y="660" as="sourcePoint" />
            <mxPoint x="440" y="610" as="targetPoint" />
          </mxGeometry>
        </mxCell>
        <mxCell id="kn155wyiQKAhr_0Em1bI-72" value="" style="endArrow=classic;html=1;rounded=0;exitX=0.5;exitY=0;exitDx=0;exitDy=0;entryX=0.5;entryY=1;entryDx=0;entryDy=0;" edge="1" parent="1" source="kn155wyiQKAhr_0Em1bI-62" target="kn155wyiQKAhr_0Em1bI-59">
          <mxGeometry width="50" height="50" relative="1" as="geometry">
            <mxPoint x="35" y="890" as="sourcePoint" />
            <mxPoint x="125" y="830" as="targetPoint" />
          </mxGeometry>
        </mxCell>
        <mxCell id="kn155wyiQKAhr_0Em1bI-73" value="" style="endArrow=classic;html=1;rounded=0;exitX=0.5;exitY=0;exitDx=0;exitDy=0;entryX=0.427;entryY=1.057;entryDx=0;entryDy=0;entryPerimeter=0;" edge="1" parent="1" source="kn155wyiQKAhr_0Em1bI-69" target="kn155wyiQKAhr_0Em1bI-65">
          <mxGeometry width="50" height="50" relative="1" as="geometry">
            <mxPoint x="45" y="900" as="sourcePoint" />
            <mxPoint x="135" y="840" as="targetPoint" />
          </mxGeometry>
        </mxCell>
        <mxCell id="kn155wyiQKAhr_0Em1bI-74" value="" style="endArrow=classic;html=1;rounded=0;exitX=0.5;exitY=0;exitDx=0;exitDy=0;" edge="1" parent="1" source="kn155wyiQKAhr_0Em1bI-70">
          <mxGeometry width="50" height="50" relative="1" as="geometry">
            <mxPoint x="55" y="910" as="sourcePoint" />
            <mxPoint x="660" y="820" as="targetPoint" />
          </mxGeometry>
        </mxCell>
        <mxCell id="kn155wyiQKAhr_0Em1bI-75" value="1" style="text;html=1;align=center;verticalAlign=middle;resizable=0;points=[];autosize=1;strokeColor=none;fillColor=none;" vertex="1" parent="1">
          <mxGeometry x="445" y="168" width="30" height="30" as="geometry" />
        </mxCell>
        <mxCell id="kn155wyiQKAhr_0Em1bI-76" value="M" style="text;html=1;align=center;verticalAlign=middle;resizable=0;points=[];autosize=1;strokeColor=none;fillColor=none;" vertex="1" parent="1">
          <mxGeometry x="205" y="168" width="30" height="30" as="geometry" />
        </mxCell>
      </root>
    </mxGraphModel>
  </diagram>
</mxfile>
